<?xml version="1.0" encoding="utf-8"?>
<!-- Generator: Adobe Illustrator 16.0.3, SVG Export Plug-In . SVG Version: 6.00 Build 0)  -->
<!DOCTYPE svg PUBLIC "-//W3C//DTD SVG 1.0//EN" "http://www.w3.org/TR/2001/REC-SVG-20010904/DTD/svg10.dtd">
<svg version="1.0" id="Capa_1" xmlns="http://www.w3.org/2000/svg" xmlns:xlink="http://www.w3.org/1999/xlink" x="0px" y="0px"
	 width="256px" height="256px" viewBox="0 0 256 256" enable-background="new 0 0 256 256" xml:space="preserve">
<g>
	<line x1="129" y1="240" x2="225" y2="208"/>
	<g>
		<line fill="none" stroke="#000000" stroke-width="0.25" stroke-miterlimit="10" x1="129" y1="240" x2="217.843" y2="210.386"/>
		<g>
			<path d="M225,208c-2.951,2.372-6.419,5.896-8.256,9.019l0.16-6.32l-3.92-4.958C216.327,207.135,221.216,207.874,225,208z"/>
		</g>
	</g>
</g>
<line stroke="#000000" stroke-width="2" stroke-miterlimit="10" x1="128" y1="240" x2="128" y2="64"/>
<g>
	<line x1="33" y1="208" x2="127" y2="239"/>
	<g>
		<line fill="none" stroke="#000000" stroke-width="0.25" stroke-miterlimit="10" x1="40.165" y1="210.362" x2="127" y2="239"/>
		<g>
			<path d="M33,208c2.958,2.362,6.438,5.876,8.285,8.992l-0.18-6.319l3.904-4.971C41.67,207.107,36.783,207.862,33,208z"/>
		</g>
	</g>
</g>
<line stroke="#000000" stroke-width="2" stroke-miterlimit="10" x1="64" y1="218" x2="64" y2="196"/>
<line stroke="#000000" stroke-width="2" stroke-miterlimit="10" x1="128" y1="64" x2="192" y2="42"/>
<line stroke="#000000" stroke-width="2" stroke-miterlimit="10" x1="106" y1="211" x2="64" y2="196"/>
<line stroke="#000000" stroke-width="2" stroke-miterlimit="10" x1="150" y1="78" x2="192" y2="64"/>
<line stroke="#000000" stroke-width="2" stroke-miterlimit="10" x1="192" y1="42" x2="192" y2="64"/>
<line stroke="#000000" stroke-miterlimit="10" x1="150" y1="232" x2="150" y2="232"/>
<line stroke="#000000" stroke-width="2" stroke-miterlimit="10" x1="106" y1="211" x2="106" y2="56"/>
<line stroke="#000000" stroke-width="2" stroke-miterlimit="10" x1="192" y1="42" x2="170" y2="35"/>
<line stroke="#000000" stroke-width="2" stroke-miterlimit="10" x1="64" y1="196" x2="85" y2="189"/>
<line stroke="#000000" stroke-width="2" stroke-miterlimit="10" x1="170" y1="35" x2="106" y2="57"/>
<line stroke="#000000" stroke-width="2" stroke-miterlimit="10" x1="107" y1="56" x2="128" y2="64"/>
<line stroke="#000000" stroke-width="2" stroke-miterlimit="10" x1="85" y1="189" x2="106" y2="196"/>
<g opacity="0.2">
	<g>
		<path fill="#1D3795" d="M125.499,60.308c5.628-0.77,10.557-3.576,16-5c-0.332-1.206-0.664-2.411-0.996-3.616
			c-4.939,1.78-8.589,5.729-13.5,7.5c-2.267,0.817-1.386,4.114,0.997,3.616c11.288-2.36,20.993-8.131,31.556-12.43
			c8.503-3.46,17.964-8.751,27.445-7.503c2.144,0.282,2.478-3.138,0.498-3.683c-5.862-1.616-11.296-4.248-17.383-4.997
			c-5.488-0.676-10.556,2.282-15.121,4.887c-12.984,7.407-28.602,10.167-42.993,13.61c-1.63,0.39-1.779,2.604-0.448,3.427
			c3.908,2.417,8.767,1.91,12.5,4.5c0.315-1.165,0.631-2.33,0.946-3.494c-2.824,0.346-1.839-1.351,0.446-2.187
			c1.42-0.52,3.145-0.65,4.614-0.834c2.353-0.296,4.669-0.578,6.938-1.295c1.954-0.617,1.688-3.802-0.498-3.683
			c-4.896,0.267-8.923,2.012-12.946,4.756c-1.211,0.826-1.284,3.112,0.448,3.427c6.019,1.095,12.164-1.698,17.574-4.008
			c6.894-2.943,13.39-6.893,20.423-9.492c2.05-0.757,1.61-3.448-0.498-3.683c-9.442-1.052-15.332,6.497-23.498,9.567
			c-1.942,0.73-1.704,3.612,0.498,3.683c5.007,0.161,9.409-2.406,13.998-4.067c2.3-0.832,1.376-4.001-0.996-3.616
			c-4.648,0.754-9.033,2.541-12.328,5.982c-1.027,1.074-0.492,2.658,0.828,3.134c4.688,1.69,7.114-2.506,11.498-2.933
			c-0.166-1.228-0.332-2.456-0.498-3.683c-5.713,2.268-10.502,5.737-15.328,9.482c-1.68,1.303,0.236,3.365,1.824,3.134
			c16.692-2.434,30.147-14.599,47.002-16.433c2.411-0.262,2.413-3.489,0-3.75c-7.645-0.825-15.736-5.638-23.498-3.433
			c-0.995,0.283-1.566,1.311-1.31,2.307c1.194,4.642-4.336,6.522-7.69,7.693c-1.915,0.668-1.719,3.773,0.498,3.683
			c5.864-0.24,11.733-2.544,14.619-7.929c0.627-1.169,0.009-2.281-1.121-2.754c-1.536-0.645-2.857-0.903-4.498-1.067
			c0.166,1.228,0.332,2.456,0.498,3.683c0.451-0.163,4.887-0.826,2.502-0.683c0.54,0.94,1.079,1.881,1.619,2.821
			c2.21-3.227,6.736-4.959,10.435-3.327c0.315-1.165,0.631-2.33,0.946-3.494c-7.022,0.255-13.614,2.828-20.176,5.117
			c-7.436,2.594-15.394,3.265-22.822,5.95c-2.256,0.815-1.283,4.44,0.996,3.616c6.981-2.523,14.357-3.553,21.5-5.5
			c6.898-1.881,13.209-5.167,20.502-5.433c1.706-0.062,2.765-2.691,0.946-3.494c-5.65-2.494-12.095-0.396-15.565,4.673
			c-0.786,1.147,0.249,2.903,1.619,2.821c2.737-0.164,5.922-0.951,5.298-4.341c-0.674-3.663-6.423-3.198-8.796-2.342
			c-2.047,0.738-1.614,3.472,0.498,3.683c1.24,0.07,2.407,0.381,3.502,0.933c-0.374-0.918-0.747-1.836-1.121-2.754
			c-2.26,4.217-6.812,5.885-11.381,6.071c0.166,1.228,0.332,2.456,0.498,3.683c5.637-1.968,12.104-5.338,10.31-12.307
			c-0.437,0.769-0.873,1.538-1.31,2.307c7.062-2.006,15.424,2.803,22.502,3.567c0-1.25,0-2.5,0-3.75
			c-17.265,1.878-30.972,14.084-47.998,16.567c0.607,1.045,1.216,2.089,1.824,3.134c4.289-3.329,8.589-6.5,13.672-8.518
			c1.804-0.716,1.778-3.905-0.498-3.683c-3.426,0.333-7.325,4.212-10.502,3.067c0.276,1.045,0.552,2.089,0.828,3.134
			c2.875-3.003,6.646-4.365,10.672-5.018c-0.332-1.206-0.664-2.411-0.996-3.616c-4.199,1.52-8.427,4.08-13.002,3.933
			c0.166,1.228,0.332,2.456,0.498,3.683c7.649-2.876,13.769-10.406,22.502-9.433c-0.166-1.228-0.332-2.456-0.498-3.683
			c-5.711,2.111-11.089,5.099-16.577,7.712c-5.439,2.589-13.131,6.934-19.426,5.788c0.149,1.143,0.298,2.285,0.448,3.427
			c3.429-2.339,6.834-4.014,11.054-4.244c-0.166-1.228-0.332-2.456-0.498-3.683c-5.121,1.618-13.165,0.334-16.477,5.63
			c-2.836,4.534,1.325,6.562,5.475,6.053c1.848-0.227,2.563-2.372,0.946-3.494c-3.831-2.658-8.573-2.07-12.5-4.5
			c-0.149,1.143-0.298,2.285-0.448,3.427c12.839-3.072,25.739-6.01,38-11c5.192-2.113,9.594-5.716,15.066-7.172
			c6.602-1.756,14.23,2.962,20.438,4.672c0.166-1.228,0.332-2.456,0.498-3.683c-8.734-1.149-17.533,3.025-25.37,6.342
			c-11.424,4.835-22.388,11.166-34.628,13.725c0.333,1.206,0.665,2.411,0.997,3.616c4.939-1.78,8.588-5.729,13.5-7.5
			c2.246-0.81,1.373-4.236-0.996-3.616c-5.443,1.425-10.372,4.23-16,5C122.115,57.019,123.135,60.631,125.499,60.308L125.499,60.308
			z"/>
	</g>
</g>
<g opacity="0.2">
	<g>
		<path fill="#1D3795" d="M66,197.375c12.194-0.343,26.465,3.907,36.554,10.744c1.202,0.814,2.821-0.27,2.821-1.619
			c0-3.5,0-7,0-10.5c0-0.844-0.574-1.574-1.376-1.808c-6.368-1.857-12.467-4.644-19.205-4.802
			c-4.759-0.111-7.966,4.168-12.794,3.734c0.166,1.228,0.333,2.455,0.499,3.683c2.68-0.599,5.239-1.267,8.001-1.433
			c2.401-0.145,2.418-3.89,0-3.75c-2.074,0.119-4.004,0.462-5.999,1.067c-2.035,0.617-1.633,3.633,0.499,3.683
			c4.387,0.102,9.634-3.193,13.174,0.451c0.442-1.067,0.884-2.134,1.326-3.201c-1.946,0.063-3.618,0.178-5.501-0.433
			c0,1.205,0,2.41,0,3.615c2.514-0.396,4.989-0.396,7.503,0c-0.149-1.142-0.298-2.284-0.448-3.427
			c-0.73,0.463-6.429,3.912-6.679,1.619c-0.625,0.625-1.25,1.25-1.875,1.875c6.05-0.608,11.405,3.197,17.001,4.933
			c2.362,0.733,3.182-2.74,0.997-3.615c-2.314-0.927-3.587-2.267-4.19-4.69c-0.918,0.705-1.836,1.411-2.754,2.117
			c2.815,1.725,4.906,3.558,5.638,6.879c0.437-0.769,0.873-1.537,1.31-2.306c-5.639,0.823-11.339,0.018-17.001-0.067
			c0,1.25,0,2.5,0,3.75c4.37-0.301,14.512,0.042,16.881,4.571c0.706-0.918,1.412-1.836,2.118-2.754
			c-5.719-2.082-11.307-4.385-16.939-6.68c-1.635-0.665-3.344-1.08-4.961-1.809c-0.915-0.412,2.699-4.589,3.021-5.258
			c-0.706,0.287-1.412,0.574-2.118,0.861c7.686,1.865,19.587,8.171,21.19,16.69c0.447,2.375,4.061,1.366,3.616-0.996
			c-1.855-9.855-14.897-17.148-23.81-19.31c-0.77-0.187-1.749,0.097-2.118,0.861c-1.743,3.618-7.644,7.071-1.676,10.389
			c2.802,1.557,6.203,2.355,9.148,3.621c4.479,1.923,9.069,3.578,13.648,5.244c1.651,0.602,2.818-1.413,2.118-2.754
			c-3.129-5.983-14.254-6.833-20.119-6.429c-2.391,0.165-2.439,3.714,0,3.75c6.036,0.091,11.99,0.811,17.999-0.067
			c1.048-0.152,1.508-1.406,1.31-2.306c-0.942-4.271-3.738-6.9-7.362-9.121c-1.443-0.885-3.142,0.562-2.754,2.117
			c0.946,3.802,3.25,5.885,6.81,7.31c0.333-1.205,0.665-2.41,0.997-3.615c-5.948-1.845-11.542-5.717-17.999-5.067
			c-0.927,0.093-1.994,0.786-1.875,1.875c0.774,7.1,8.251,4.198,12.321,1.619c1.237-0.784,1.265-3.157-0.448-3.427
			c-3.205-0.505-6.292-0.505-9.497,0c-1.964,0.309-1.607,3.095,0,3.615c2.254,0.731,4.155,0.645,6.499,0.567
			c1.63-0.054,2.488-2.005,1.326-3.201c-4.88-5.024-9.884-1.411-15.826-1.549c0.166,1.228,0.333,2.455,0.499,3.683
			c1.701-0.516,3.193-0.828,5.001-0.933c0-1.25,0-2.5,0-3.75c-3.081,0.186-5.993,0.895-8.999,1.567
			c-2.195,0.49-1.491,3.504,0.499,3.683c4.44,0.398,7.109-2.074,11.07-3.442c5.879-2.029,14.36,2.751,19.932,4.375
			c-0.459-0.603-0.917-1.205-1.376-1.808c0,3.5,0,7,0,10.5c0.94-0.54,1.881-1.079,2.821-1.619
			C93.806,197.67,78.85,193.265,66,193.625C63.587,193.692,63.581,197.443,66,197.375L66,197.375z"/>
	</g>
</g>
<line stroke="#000000" stroke-width="2" stroke-miterlimit="10" x1="64" y1="218" x2="127" y2="239"/>
<line stroke="#000000" stroke-width="2" stroke-miterlimit="10" x1="150" y1="232" x2="129" y2="239"/>
<line stroke="#FFFFFF" stroke-miterlimit="10" x1="149" y1="215" x2="202" y2="198"/>
<line stroke="#FFFFFF" stroke-miterlimit="10" x1="176" y1="224" x2="149.5" y2="214.5"/>
<line stroke="#FFFFFF" stroke-miterlimit="10" x1="202" y1="216" x2="151" y2="198"/>
<line stroke="#FFFFFF" stroke-miterlimit="10" x1="149" y1="198" x2="183" y2="187"/>
<line stroke="#000000" stroke-width="2" stroke-miterlimit="10" x1="150" y1="232" x2="150" y2="78"/>
</svg>
